<svg width="664" height="469" viewBox="0 0 664 469" fill="none" xmlns="http://www.w3.org/2000/svg">
<path d="M30.9766 259.645V289.105L116.412 338.038M30.9766 259.645L365.724 65.9102L464.65 123.831M30.9766 259.645L262.302 392.463M464.65 123.831C479.325 115.092 488.108 113.201 504.619 112.846M464.65 123.831L496.625 141.806M504.619 112.846C506.917 115.016 507.417 116.334 507.117 118.838V119.836M504.619 112.846C502.167 115.818 500.644 118.261 500.09 120.835M507.117 119.836L554.082 119.337H556.081M507.117 119.836V120.835H500.09M556.081 119.337C558.626 116.95 560.193 115.951 563.075 114.344C567.405 113.814 569.803 113.579 574.067 113.345C578.102 111.631 580.431 111.017 584.559 109.85C584.559 109.85 586.49 109.965 587.057 110.849C587.584 111.669 587.057 113.345 587.057 113.345C587.123 113.472 576.065 119.337 576.065 119.836C576.065 120.336 597.549 119.836 597.549 119.836C597.549 119.836 599.548 121.426 599.548 122.832C599.548 124.238 597.549 125.828 597.549 125.828C597.549 125.828 578.064 126.827 578.064 127.326C578.064 127.825 596.55 133.318 596.55 133.318C596.55 133.318 597.578 134.765 597.549 135.814C597.51 137.22 595.551 138.81 595.551 138.81C595.551 138.81 573.567 134.317 573.567 134.816C573.567 135.315 591.054 145.301 591.054 145.301C592.424 148.198 591.715 150.761 590.055 150.794C588.394 150.827 568.571 139.809 569.57 142.306C570.57 144.802 572.127 154.971 571.569 155.288C571.569 155.288 570.57 157.784 569.57 158.284C568.571 158.783 566.073 156.286 566.073 155.787C566.073 155.288 566.113 151.417 565.074 148.797C560.033 141.861 557.106 137.945 553.083 131.321M556.081 119.337C553.754 123.589 553.164 126.259 553.083 131.321M553.083 131.321C552.7 131.321 522.991 131.321 509.116 131.321M502.121 131.321C499.97 126.664 499.417 123.74 500.09 120.835M502.121 131.321C502.924 135.246 507.6 141.081 508.117 140.808M502.121 131.321C502.121 131.321 504.881 131.321 509.116 131.321M508.117 140.808C508.633 140.534 509.433 135.61 509.116 131.321M508.117 140.808L496.625 141.806M496.625 141.806L596.55 199.936M536.595 265.637L598.049 230.185L597.05 200.226L596.55 199.936M536.595 265.637C525.878 260.598 520.216 258.556 513.113 261.642C508.452 267.233 508.952 271.072 513.113 278.619M536.595 265.637C537.331 264.858 558.378 278.806 556.58 277.62M513.113 278.619C519.068 288.223 522.952 292.572 530.6 299.091M513.113 278.619L380.213 355.014M530.6 299.091C532.051 290.643 537.227 285.185 542.591 281.861M530.6 299.091C536.696 299.567 539.008 298.594 541.983 295.596M556.58 277.62C555.783 281.232 554.564 283.565 551.584 288.106M556.58 277.62C555.604 276.976 548.964 277.912 542.591 281.861M551.584 288.106C547.949 285.825 545.986 284.497 542.591 281.861M551.584 288.106C576.582 303.374 590.854 311.363 616.535 325.055M616.535 325.055L619.533 323.557L625.029 326.054M616.535 325.055L611.039 330.049M625.029 326.054C629.435 306.165 634.771 300.065 648.511 296.594M625.029 326.054C620.961 334.934 618.029 336.492 611.039 330.049M648.511 296.594L653.007 295.995M648.511 296.594C634.714 313.065 635.413 327.704 635.021 353.516M642.016 353.516C651.404 350.637 655.533 347.486 660.002 338.038C661.085 325.999 661.719 319.61 663 310.076C662.507 305.901 662.156 303.941 661.501 300.589C659.656 298.44 658.567 297.282 656.005 295.596L653.007 295.995M642.016 353.516C638.518 323.557 640.332 310.987 653.007 295.995M642.016 353.516H635.021M635.021 353.516C623.608 351.156 617.959 347.595 609.54 336.54L610.04 334.376M611.039 330.049L610.04 334.376M610.04 334.376L541.983 295.596M534.097 291.102L541.983 295.596M380.213 355.014C359.99 348.273 354.471 350.41 357.73 367.497M380.213 355.014C380.213 355.014 407.193 370.493 403.196 368.496M357.73 367.497C364.504 377.734 368.888 382.573 377.215 390.466M357.73 367.497L262.302 422.422M377.215 390.466C377.757 387.24 378.733 384.423 380.002 381.977M377.215 390.466C383.144 390.515 385.709 389.794 388.707 386.857M403.196 368.496L398.2 379.481M403.196 368.496C401.052 367.425 394.667 368.279 388.707 372.273M398.2 379.481L388.707 372.273M398.2 379.481L463.151 415.931M388.707 372.273C385.413 374.48 382.248 377.647 380.002 381.977M463.151 415.931C463.151 415.931 465.649 414.433 466.148 414.433C466.648 414.433 471.145 416.93 471.145 416.93M463.151 415.931L457.155 421.001M471.145 416.93C467.468 426.345 464.488 427.597 457.155 421.001M471.145 416.93L471.924 415.931C476.146 396.66 481.445 391.237 494.127 387.47M494.127 387.47L501.122 386.596M494.127 387.47C482.636 404.447 480.259 418.073 481.137 444.392M488.132 443.893C497.544 441.978 501.235 438.679 506.118 430.411C507.05 421.586 507.591 416.595 508.616 407.443C508.793 402.536 508.839 399.672 508.616 393.961C509.271 392.906 503.302 385.5 502.121 386.471C500.941 387.443 501.122 386.596 501.122 386.596M488.132 443.893C484.481 411.295 487.998 397.956 501.122 386.596M488.132 443.893L481.137 444.392M481.137 444.392C470.645 442.894 464.77 439.071 455.656 427.915L456.156 424.669M457.155 421.001L456.656 421.423L456.156 424.669M456.156 424.669L388.707 386.857M380.002 381.977L388.707 386.857M262.302 422.422L137.896 350.521M262.302 422.422V392.463M137.896 350.521C137.651 327.186 126.256 323.079 116.412 338.038M137.896 350.521L133.899 377.484M116.412 338.038C106.568 352.997 106.615 372.863 105.42 371.492M105.42 371.492C108.848 369.956 111.786 368.975 114.414 368.525M105.42 371.492C107.613 375.274 109.431 376.445 113.375 377.484M133.899 377.484C130.932 380.075 128.812 380.739 123.906 379.98M133.899 377.484C130.929 374.398 128.301 372.051 125.646 370.493M123.906 379.98L125.646 370.493M123.906 379.98C121.736 396.292 121.398 405.671 120.909 422.422M125.646 370.493C122.211 368.478 118.732 367.785 114.414 368.525M120.909 422.422C127.404 424.919 131.401 433.407 138.895 435.904C146.39 438.4 145.39 437.901 145.39 437.901C146.741 439.582 146.485 440.416 143.891 441.895C138.524 441.562 131.02 438.092 130.402 438.9C129.783 439.707 137.163 457.699 136.897 458.872C136.631 460.045 134.507 462.507 131.401 460.869C128.017 453.522 124.999 448.87 122.907 442.395C120.816 435.919 125.781 465.597 124.406 464.864C122.108 467.459 119.41 466.861 118.411 464.365C117.411 461.868 117.675 451.451 115.413 446.389C113.15 441.328 113.924 462.396 110.916 465.363C108.964 468.763 105.416 469.162 105.42 464.864C105.425 460.566 109.851 441.964 107.919 442.894L100.424 453.879C97.1743 456.628 95.2816 451.77 96.4272 449.884C97.5728 447.999 100.971 441.758 102.423 436.403C102.433 433.93 102.433 432.509 102.423 429.912L107.873 424.919M120.909 422.422C116.13 420.862 113.392 421.463 108.418 424.419L107.873 424.919M107.873 424.919C109.288 406.548 110.251 396.22 113.375 377.484M114.414 368.525L113.375 377.484M262.302 392.463L596.55 199.936M301.273 295.596L382.711 246.763M382.711 246.763C408.342 267.096 422.229 273.006 444.665 257.148C463.09 240.624 456.638 235.157 426.179 220.698L405.694 232.981M382.711 246.763L405.694 232.981M405.694 232.981L425.179 245.664M387.708 145.801L387.464 166.273M387.208 187.743L387.464 166.273M387.464 166.273L424.68 166.772L352.234 165.773M211.341 252.654V274.125M211.341 295.596V274.125M211.341 274.125H248.313L176.367 272.627M328.252 97.3671L131.401 212.21L146.39 221.198L344.74 106.854L328.252 97.3671Z" stroke="#F82249" stroke-width="2"/>
<path d="M131.169 232.156L131.245 232.174L131.323 232.18L131.541 232.198C130.99 234.09 129.827 235.76 128.219 236.937C126.315 238.33 123.938 238.919 121.603 238.577C119.267 238.235 117.16 236.988 115.736 235.107C114.312 233.226 113.685 230.861 113.99 228.523C114.296 226.184 115.509 224.059 117.369 222.606C119.228 221.153 121.585 220.489 123.93 220.758C126.275 221.026 128.421 222.205 129.904 224.04C131.14 225.571 131.806 227.953 131.822 230.123L130.913 229.975C130.897 228.135 130.343 226.064 129.179 224.623C127.85 222.978 125.926 221.921 123.824 221.68C121.722 221.44 119.61 222.035 117.942 223.337C116.275 224.64 115.187 226.545 114.913 228.643C114.639 230.74 115.202 232.861 116.478 234.547C117.755 236.234 119.644 237.351 121.738 237.658C123.831 237.965 125.962 237.437 127.669 236.187C129.086 235.151 130.117 233.687 130.622 232.026L131.169 232.156Z" stroke="#F82249" stroke-width="2"/>
<path d="M364.992 93.3466L365.069 93.3648L365.147 93.3709L365.365 93.388C364.814 95.2806 363.651 96.9506 362.043 98.127C360.138 99.5203 357.762 100.11 355.426 99.7672C353.091 99.425 350.984 98.1788 349.56 96.2977C348.136 94.4167 347.509 92.0517 347.814 89.713C348.12 87.3743 349.333 85.2492 351.192 83.7964C353.052 82.3436 355.409 81.6797 357.754 81.948C360.099 82.2163 362.245 83.3954 363.727 85.2305C364.964 86.7611 365.629 89.1437 365.645 91.3134L364.737 91.1656C364.721 89.3252 364.167 87.254 363.003 85.8136C361.673 84.1682 359.75 83.1114 357.648 82.8708C355.546 82.6303 353.433 83.2254 351.766 84.5278C350.099 85.8303 349.011 87.7357 348.737 89.833C348.463 91.9304 349.025 94.0512 350.302 95.7378C351.579 97.4243 353.468 98.5414 355.561 98.8482C357.655 99.155 359.785 98.6269 361.493 97.3778C362.91 96.3413 363.941 94.8772 364.445 93.216L364.992 93.3466Z" stroke="#F82249" stroke-width="2"/>
<path d="M107.187 245.139L107.263 245.157L107.341 245.163L107.559 245.18C107.008 247.073 105.845 248.743 104.237 249.919C102.333 251.312 99.9562 251.901 97.6206 251.559C95.2851 251.217 93.178 249.971 91.7539 248.09C90.3299 246.209 89.7031 243.844 90.0085 241.505C90.314 239.166 91.5273 237.041 93.3868 235.588C95.2464 234.136 97.6031 233.472 99.9483 233.74C102.293 234.008 104.439 235.187 105.922 237.023C107.158 238.553 107.824 240.936 107.84 243.105L106.932 242.958C106.916 241.117 106.361 239.046 105.197 237.606C103.868 235.96 101.944 234.903 99.8423 234.663C97.7402 234.422 95.6276 235.017 93.9605 236.32C92.2933 237.622 91.2053 239.528 90.9314 241.625C90.6575 243.722 91.2196 245.843 92.4965 247.53C93.7733 249.216 95.6623 250.333 97.7558 250.64C99.8493 250.947 101.98 250.419 103.687 249.17C105.104 248.133 106.135 246.669 106.64 245.008L107.187 245.139Z" stroke="#F82249" stroke-width="2"/>
<path d="M82.2055 260.118L82.2818 260.136L82.36 260.142L82.5781 260.159C82.0268 262.052 80.8641 263.722 79.2561 264.898C77.3515 266.292 74.975 266.881 72.6394 266.539C70.3039 266.196 68.1968 264.95 66.7727 263.069C65.3487 261.188 64.7219 258.823 65.0273 256.484C65.3328 254.146 66.5461 252.021 68.4056 250.568C70.2652 249.115 72.6219 248.451 74.9671 248.719C77.3123 248.988 79.4577 250.167 80.9406 252.002C82.1773 253.533 82.8424 255.915 82.8586 258.085L81.9503 257.937C81.9344 256.097 81.38 254.026 80.2161 252.585C78.8866 250.94 76.9632 249.883 74.8611 249.642C72.759 249.402 70.6464 249.997 68.9793 251.299C67.3121 252.602 66.2241 254.507 65.9502 256.605C65.6763 258.702 66.2384 260.823 67.5153 262.509C68.7921 264.196 70.6811 265.313 72.7746 265.62C74.8681 265.927 76.9984 265.398 78.7059 264.149C80.1227 263.113 81.1542 261.649 81.6585 259.987L82.2055 260.118Z" stroke="#F82249" stroke-width="2"/>
<line y1="-1" x2="8.47628" y2="-1" transform="matrix(0.707324 0.70689 -0.707324 0.70689 175.867 1.99707)" stroke="#F82249" stroke-width="2"/>
<line y1="-1" x2="8.47628" y2="-1" transform="matrix(0.707324 0.70689 -0.707324 0.70689 118.91 130.821)" stroke="#F82249" stroke-width="2"/>
<line y1="-1" x2="8.47628" y2="-1" transform="matrix(0.707324 0.70689 -0.707324 0.70689 427.677 19.9727)" stroke="#F82249" stroke-width="2"/>
<line y1="-1" x2="8.47628" y2="-1" transform="matrix(0.707324 0.70689 -0.707324 0.70689 0 83.8848)" stroke="#F82249" stroke-width="2"/>
<line y1="-1" x2="8.47628" y2="-1" transform="matrix(0.707324 0.70689 -0.707324 0.70689 248.812 59.918)" stroke="#F82249" stroke-width="2"/>
<line y1="-1" x2="8.47628" y2="-1" transform="matrix(0.707324 0.70689 -0.707324 0.70689 192.854 18.9736)" stroke="#F82249" stroke-width="2"/>
<line y1="-1" x2="8.47628" y2="-1" transform="matrix(0.707324 0.70689 -0.707324 0.70689 135.897 147.798)" stroke="#F82249" stroke-width="2"/>
<line y1="-1" x2="8.47628" y2="-1" transform="matrix(0.707324 0.70689 -0.707324 0.70689 444.665 36.9492)" stroke="#F82249" stroke-width="2"/>
<line y1="-1" x2="8.47628" y2="-1" transform="matrix(0.707324 0.70689 -0.707324 0.70689 8.99316 92.873)" stroke="#F82249" stroke-width="2"/>
<line y1="-1" x2="8.47628" y2="-1" transform="matrix(0.707324 0.70689 -0.707324 0.70689 258.805 70.9033)" stroke="#F82249" stroke-width="2"/>
<line y1="-1" x2="8.47628" y2="-1" transform="matrix(-0.707324 0.70689 -0.707324 -0.70689 198.85 0)" stroke="#F82249" stroke-width="2"/>
<line y1="-1" x2="8.47628" y2="-1" transform="matrix(-0.707324 0.70689 -0.707324 -0.70689 141.893 128.823)" stroke="#F82249" stroke-width="2"/>
<line y1="-1" x2="8.47628" y2="-1" transform="matrix(-0.707324 0.70689 -0.707324 -0.70689 450.66 17.9756)" stroke="#F82249" stroke-width="2"/>
<line y1="-1" x2="8.47628" y2="-1" transform="matrix(-0.707324 0.70689 -0.707324 -0.70689 14.9888 82.8867)" stroke="#F82249" stroke-width="2"/>
<line y1="-1" x2="8.47628" y2="-1" transform="matrix(-0.707324 0.70689 -0.707324 -0.70689 264.8 58.9189)" stroke="#F82249" stroke-width="2"/>
<line y1="-1" x2="8.47628" y2="-1" transform="matrix(-0.707324 0.70689 -0.707324 -0.70689 181.863 17.9756)" stroke="#F82249" stroke-width="2"/>
<line y1="-1" x2="8.47628" y2="-1" transform="matrix(-0.707324 0.70689 -0.707324 -0.70689 124.906 146.799)" stroke="#F82249" stroke-width="2"/>
<line y1="-1" x2="8.47628" y2="-1" transform="matrix(-0.707324 0.70689 -0.707324 -0.70689 433.673 35.9512)" stroke="#F82249" stroke-width="2"/>
<line y1="-1" x2="8.47628" y2="-1" transform="matrix(-0.707324 0.70689 -0.707324 -0.70689 5.99536 91.874)" stroke="#F82249" stroke-width="2"/>
<line y1="-1" x2="8.47628" y2="-1" transform="matrix(-0.707324 0.70689 -0.707324 -0.70689 254.808 68.9053)" stroke="#F82249" stroke-width="2"/>
</svg>
