<svg width="40" height="40" viewBox="0 0 40 40" fill="none" xmlns="http://www.w3.org/2000/svg">
<g id="ph:lock-bold">
<path id="Vector" d="M32.5 11.875H28.125V8.75C28.125 6.59512 27.269 4.52849 25.7452 3.00476C24.2215 1.48102 22.1549 0.625 20 0.625C17.8451 0.625 15.7785 1.48102 14.2548 3.00476C12.731 4.52849 11.875 6.59512 11.875 8.75V11.875H7.5C6.6712 11.875 5.87634 12.2042 5.29029 12.7903C4.70424 13.3763 4.375 14.1712 4.375 15V32.5C4.375 33.3288 4.70424 34.1237 5.29029 34.7097C5.87634 35.2958 6.6712 35.625 7.5 35.625H32.5C33.3288 35.625 34.1237 35.2958 34.7097 34.7097C35.2958 34.1237 35.625 33.3288 35.625 32.5V15C35.625 14.1712 35.2958 13.3763 34.7097 12.7903C34.1237 12.2042 33.3288 11.875 32.5 11.875ZM15.625 8.75C15.625 7.58968 16.0859 6.47688 16.9064 5.65641C17.7269 4.83594 18.8397 4.375 20 4.375C21.1603 4.375 22.2731 4.83594 23.0936 5.65641C23.9141 6.47688 24.375 7.58968 24.375 8.75V11.875H15.625V8.75ZM31.875 31.875H8.125V15.625H31.875V31.875ZM22.5 23.75C22.5 24.2445 22.3534 24.7278 22.0787 25.1389C21.804 25.55 21.4135 25.8705 20.9567 26.0597C20.4999 26.2489 19.9972 26.2984 19.5123 26.202C19.0273 26.1055 18.5819 25.8674 18.2322 25.5178C17.8826 25.1681 17.6445 24.7227 17.548 24.2377C17.4516 23.7528 17.5011 23.2501 17.6903 22.7933C17.8795 22.3365 18.2 21.946 18.6111 21.6713C19.0222 21.3966 19.5055 21.25 20 21.25C20.663 21.25 21.2989 21.5134 21.7678 21.9822C22.2366 22.4511 22.5 23.087 22.5 23.75Z" fill="white"/>
</g>
</svg>
