<svg width="25" height="25" viewBox="0 0 25 25" fill="none" xmlns="http://www.w3.org/2000/svg">
<g id="ion:create">
<path id="Vector" d="M22.4581 2.60011C22.3867 2.52171 22.3002 2.4586 22.2038 2.41457C22.1074 2.37055 22.003 2.34653 21.897 2.34398C21.791 2.34142 21.6857 2.36038 21.5872 2.3997C21.4888 2.43903 21.3993 2.4979 21.3243 2.57277L20.7203 3.17384C20.6471 3.24709 20.606 3.34641 20.606 3.44997C20.606 3.55352 20.6471 3.65284 20.7203 3.72609L21.274 4.27882C21.3103 4.31529 21.3534 4.34422 21.4009 4.36397C21.4484 4.38371 21.4994 4.39388 21.5508 4.39388C21.6023 4.39388 21.6532 4.38371 21.7007 4.36397C21.7483 4.34422 21.7914 4.31529 21.8277 4.27882L22.4166 3.69289C22.7144 3.39552 22.7422 2.91115 22.4581 2.60011ZM19.4991 4.39455L10.6846 13.1934C10.6312 13.2466 10.5923 13.3127 10.5718 13.3853L10.1641 14.5996C10.1544 14.6326 10.1537 14.6675 10.1621 14.7009C10.1706 14.7342 10.1879 14.7646 10.2122 14.7889C10.2365 14.8132 10.2669 14.8305 10.3002 14.8389C10.3335 14.8474 10.3685 14.8467 10.4014 14.8369L11.6148 14.4292C11.6874 14.4087 11.7535 14.3699 11.8067 14.3164L20.6055 5.50099C20.6869 5.41872 20.7326 5.30765 20.7326 5.19191C20.7326 5.07617 20.6869 4.9651 20.6055 4.88283L20.1197 4.39455C20.0373 4.3124 19.9257 4.26627 19.8094 4.26627C19.6931 4.26627 19.5815 4.3124 19.4991 4.39455Z" fill="white"/>
<path id="Vector_2" d="M18.8643 9.45605L12.9126 15.4194C12.6826 15.65 12.3998 15.8211 12.0889 15.918L10.8242 16.3413C10.5241 16.4261 10.2068 16.4293 9.905 16.3506C9.60323 16.2719 9.32789 16.1141 9.10736 15.8936C8.88684 15.6731 8.7291 15.3978 8.65041 15.096C8.57171 14.7942 8.57491 14.4769 8.65967 14.1768L9.08301 12.9121C9.17956 12.6012 9.35033 12.3185 9.58057 12.0884L15.5439 6.13574C15.5986 6.08114 15.6359 6.01156 15.651 5.93579C15.6661 5.86002 15.6584 5.78147 15.6289 5.71007C15.5993 5.63868 15.5493 5.57764 15.4851 5.53469C15.4208 5.49173 15.3453 5.46879 15.2681 5.46875H5.07812C4.35292 5.46875 3.65742 5.75684 3.14463 6.26963C2.63184 6.78242 2.34375 7.47792 2.34375 8.20312V19.9219C2.34375 20.6471 2.63184 21.3426 3.14463 21.8554C3.65742 22.3682 4.35292 22.6562 5.07812 22.6562H16.7969C17.5221 22.6563 18.2176 22.3682 18.7304 21.8554C19.2432 21.3426 19.5312 20.6471 19.5312 19.9219V9.73193C19.5312 9.65467 19.5083 9.57916 19.4653 9.51494C19.4224 9.45072 19.3613 9.40068 19.2899 9.37115C19.2185 9.34162 19.14 9.33392 19.0642 9.34904C18.9884 9.36415 18.9189 9.40139 18.8643 9.45605Z" fill="white"/>
</g>
</svg>
