<svg width="31" height="31" viewBox="0 0 31 31" fill="none" xmlns="http://www.w3.org/2000/svg">
<path d="M15.5 22.7916C15.9132 22.7916 16.2598 22.6516 16.5398 22.3716C16.8198 22.0916 16.9593 21.7455 16.9584 21.3333C16.9584 20.9201 16.8184 20.574 16.5384 20.295C16.2584 20.0159 15.9122 19.8759 15.5 19.875C15.0868 19.875 14.7407 20.015 14.4617 20.295C14.1827 20.575 14.0427 20.9211 14.0417 21.3333C14.0417 21.7465 14.1817 22.0931 14.4617 22.3731C14.7417 22.6531 15.0878 22.7926 15.5 22.7916ZM14.0417 16.9583H16.9584V8.20829H14.0417V16.9583ZM15.5 30.0833C13.4827 30.0833 11.5868 29.7002 9.81252 28.9341C8.03822 28.168 6.49481 27.1292 5.18231 25.8177C3.86981 24.5052 2.83099 22.9618 2.06585 21.1875C1.30071 19.4132 0.917659 17.5173 0.916687 15.5C0.916687 13.4826 1.29974 11.5868 2.06585 9.81246C2.83197 8.03815 3.87078 6.49475 5.18231 5.18225C6.49481 3.86975 8.03822 2.83093 9.81252 2.06579C11.5868 1.30065 13.4827 0.917598 15.5 0.916626C17.5174 0.916626 19.4132 1.29968 21.1875 2.06579C22.9618 2.8319 24.5052 3.87072 25.8177 5.18225C27.1302 6.49475 28.1695 8.03815 28.9356 9.81246C29.7018 11.5868 30.0843 13.4826 30.0834 15.5C30.0834 17.5173 29.7003 19.4132 28.9342 21.1875C28.1681 22.9618 27.1293 24.5052 25.8177 25.8177C24.5052 27.1302 22.9618 28.1695 21.1875 28.9356C19.4132 29.7017 17.5174 30.0843 15.5 30.0833ZM15.5 27.1666C18.757 27.1666 21.5156 26.0364 23.7761 23.776C26.0365 21.5156 27.1667 18.7569 27.1667 15.5C27.1667 12.243 26.0365 9.48433 23.7761 7.22392C21.5156 4.9635 18.757 3.83329 15.5 3.83329C12.2431 3.83329 9.4844 4.9635 7.22398 7.22392C4.96356 9.48433 3.83335 12.243 3.83335 15.5C3.83335 18.7569 4.96356 21.5156 7.22398 23.776C9.4844 26.0364 12.2431 27.1666 15.5 27.1666Z" fill="#E63400"/>
</svg>
