<svg width="25" height="25" viewBox="0 0 25 25" fill="none" xmlns="http://www.w3.org/2000/svg">
<g id="ooui:reference-existing-ltr" clip-path="url(#clip0_212_2)">
<path id="Vector" d="M8.75 0C8.08696 0 7.45107 0.263392 6.98223 0.732233C6.51339 1.20107 6.25 1.83696 6.25 2.5H17.5C18.163 2.5 18.7989 2.76339 19.2678 3.23223C19.7366 3.70107 20 4.33696 20 5V20C20.663 20 21.2989 19.7366 21.7678 19.2678C22.2366 18.7989 22.5 18.163 22.5 17.5V2.5C22.5 1.83696 22.2366 1.20107 21.7678 0.732233C21.2989 0.263392 20.663 0 20 0L8.75 0Z" fill="white"/>
<path id="Vector_2" d="M16.25 15L12.75 11.5L9.25 15V3.75H5C3.625 3.75 2.5 4.875 2.5 6.25V22.5C2.5 23.875 3.625 25 5 25H16.25C17.625 25 18.75 23.875 18.75 22.5V6.25C18.75 4.875 17.625 3.75 16.25 3.75V15Z" fill="white"/>
</g>
<defs>
<clipPath id="clip0_212_2">
<rect width="25" height="25" fill="white"/>
</clipPath>
</defs>
</svg>
