<svg width="30" height="30" viewBox="0 0 30 30" fill="none" xmlns="http://www.w3.org/2000/svg">
<g id="grommet-icons:group">
<path id="Vector" d="M15 16.25C16.3261 16.25 17.5979 15.7232 18.5355 14.7855C19.4732 13.8479 20 12.5761 20 11.25C20 9.92392 19.4732 8.65215 18.5355 7.71447C17.5979 6.77678 16.3261 6.25 15 6.25C13.6739 6.25 12.4021 6.77678 11.4645 7.71447C10.5268 8.65215 10 9.92392 10 11.25C10 12.5761 10.5268 13.8479 11.4645 14.7855C12.4021 15.7232 13.6739 16.25 15 16.25ZM15 16.25C13.0109 16.25 11.1032 17.0402 9.6967 18.4467C8.29018 19.8532 7.5 21.7609 7.5 23.75V27.5M15 16.25C16.9891 16.25 18.8968 17.0402 20.3033 18.4467C21.7098 19.8532 22.5 21.7609 22.5 23.75V27.5M16.25 6.25C16.755 4.17 18.7687 2.5 21.25 2.5C23.965 2.5 26.225 4.7375 26.25 7.5C26.225 10.2625 23.965 12.5 21.25 12.5M21.25 12.5H20M21.25 12.5C25.36 12.5 28.75 15.8575 28.75 20V22.5M13.75 6.25C13.245 4.17 11.2313 2.5 8.75 2.5C6.035 2.5 3.775 4.7375 3.75 7.5C3.775 10.2625 6.035 12.5 8.75 12.5M8.75 12.5H10M8.75 12.5C4.64 12.5 1.25 15.8575 1.25 20V22.5" stroke="white" stroke-width="2.5"/>
</g>
</svg>
