<svg width="200" height="200" viewBox="0 0 200 200" fill="none" xmlns="http://www.w3.org/2000/svg">
<g id="material-symbols-light:publish">
<path id="Vector" d="M95.8333 158.333V86.25L76.4167 105.667L70.5167 99.6833L100 70.1916L129.483 99.6833L123.592 105.675L104.167 86.25V158.333H95.8333ZM41.6667 75.3166V55.125C41.6667 51.2916 42.9528 48.0916 45.525 45.525C48.0917 42.9527 51.2917 41.6666 55.125 41.6666H144.875C148.708 41.6666 151.908 42.9527 154.475 45.525C157.047 48.0916 158.333 51.2916 158.333 55.125V75.3166H150V55.125C150 53.8472 149.467 52.6722 148.4 51.6C147.328 50.5333 146.153 50 144.875 50H55.125C53.8472 50 52.6722 50.5333 51.6 51.6C50.5333 52.6722 50 53.8472 50 55.125V75.3166H41.6667Z" fill="url(#paint0_linear_12_54)"/>
</g>
<defs>
<linearGradient id="paint0_linear_12_54" x1="43.8008" y1="41.6666" x2="134.009" y2="174.899" gradientUnits="userSpaceOnUse">
<stop stop-color="#9E3DFF"/>
<stop offset="1" stop-color="#C10074"/>
</linearGradient>
</defs>
</svg>
