<svg width="25" height="25" viewBox="0 0 25 25" fill="none" xmlns="http://www.w3.org/2000/svg">
<g clip-path="url(#clip0_207_2)">
<path d="M12.5002 2.08334C18.2533 2.08334 22.9168 6.74689 22.9168 12.5C22.9168 18.2531 18.2533 22.9167 12.5002 22.9167C6.74704 22.9167 2.0835 18.2531 2.0835 12.5C2.0835 6.74689 6.74704 2.08334 12.5002 2.08334ZM12.4897 10.4167H11.4585C11.193 10.417 10.9376 10.5186 10.7446 10.7009C10.5515 10.8832 10.4353 11.1323 10.4198 11.3973C10.4042 11.6623 10.4904 11.9233 10.6609 12.1269C10.8313 12.3305 11.073 12.4614 11.3366 12.4927L11.4585 12.5V17.6979C11.4585 18.2396 11.8689 18.6875 12.396 18.7438L12.5106 18.75H13.021C13.2401 18.75 13.4536 18.6809 13.6311 18.5526C13.8087 18.4243 13.9413 18.2433 14.01 18.0353C14.0788 17.8273 14.0802 17.6029 14.0141 17.394C13.948 17.1852 13.8177 17.0024 13.6418 16.8719L13.5418 16.8063V11.4688C13.5418 10.9271 13.1314 10.4792 12.6043 10.4229L12.4897 10.4167ZM12.5002 7.29168C12.2239 7.29168 11.9589 7.40142 11.7636 7.59677C11.5682 7.79212 11.4585 8.05708 11.4585 8.33334C11.4585 8.60961 11.5682 8.87456 11.7636 9.06991C11.9589 9.26526 12.2239 9.37501 12.5002 9.37501C12.7764 9.37501 13.0414 9.26526 13.2367 9.06991C13.4321 8.87456 13.5418 8.60961 13.5418 8.33334C13.5418 8.05708 13.4321 7.79212 13.2367 7.59677C13.0414 7.40142 12.7764 7.29168 12.5002 7.29168Z" fill="white"/>
</g>
<defs>
<clipPath id="clip0_207_2">
<rect width="25" height="25" fill="#ffffff"/>
</clipPath>
</defs>
</svg>
