<svg width="40" height="40" viewBox="0 0 40 40" fill="none" xmlns="http://www.w3.org/2000/svg">
<g id="ph:lock-open-bold">
<path id="Vector" d="M32.5 11.875H15.625V8.75C15.625 7.58968 16.0859 6.47688 16.9064 5.65641C17.7269 4.83594 18.8397 4.375 20 4.375C22.1109 4.375 24.0078 5.87812 24.4125 7.87344C24.4615 8.11474 24.5576 8.34402 24.6953 8.54819C24.8329 8.75236 25.0094 8.92742 25.2148 9.06337C25.4201 9.19932 25.6501 9.2935 25.8918 9.34054C26.1335 9.38757 26.3821 9.38654 26.6234 9.3375C26.8647 9.28846 27.094 9.19237 27.2982 9.05472C27.5024 8.91707 27.6774 8.74055 27.8134 8.53525C27.9493 8.32994 28.0435 8.09987 28.0905 7.85817C28.1376 7.61647 28.1365 7.36787 28.0875 7.12656C27.3234 3.35938 23.9219 0.625 20 0.625C17.8459 0.627481 15.7807 1.4843 14.2575 3.0075C12.7343 4.53069 11.8775 6.59588 11.875 8.75V11.875H7.5C6.6712 11.875 5.87634 12.2042 5.29029 12.7903C4.70424 13.3763 4.375 14.1712 4.375 15V32.5C4.375 33.3288 4.70424 34.1237 5.29029 34.7097C5.87634 35.2958 6.6712 35.625 7.5 35.625H32.5C33.3288 35.625 34.1237 35.2958 34.7097 34.7097C35.2958 34.1237 35.625 33.3288 35.625 32.5V15C35.625 14.1712 35.2958 13.3763 34.7097 12.7903C34.1237 12.2042 33.3288 11.875 32.5 11.875ZM31.875 31.875H8.125V15.625H31.875V31.875ZM17.5 23.75C17.5 23.2555 17.6466 22.7722 17.9213 22.3611C18.196 21.95 18.5865 21.6295 19.0433 21.4403C19.5001 21.2511 20.0028 21.2016 20.4877 21.298C20.9727 21.3945 21.4181 21.6326 21.7678 21.9822C22.1174 22.3319 22.3555 22.7773 22.452 23.2623C22.5484 23.7472 22.4989 24.2499 22.3097 24.7067C22.1205 25.1635 21.8 25.554 21.3889 25.8287C20.9778 26.1034 20.4945 26.25 20 26.25C19.337 26.25 18.7011 25.9866 18.2322 25.5178C17.7634 25.0489 17.5 24.413 17.5 23.75Z" fill="white"/>
</g>
</svg>
