<svg width="40" height="40" viewBox="0 0 40 40" fill="none" xmlns="http://www.w3.org/2000/svg">
<g id="fluent:people-team-24-regular">
<path id="Vector" d="M24.5899 16.6667C26.1999 16.6667 27.5066 17.9733 27.5066 19.5833V27.4983C27.5066 29.4879 26.7162 31.396 25.3094 32.8028C23.9026 34.2096 21.9945 35 20.0049 35C18.0154 35 16.1073 34.2096 14.7004 32.8028C13.2936 31.396 12.5033 29.4879 12.5033 27.4983V19.5833C12.5033 17.9733 13.8083 16.6667 15.4199 16.6667H24.5899ZM24.5899 19.1667H15.4199C15.3094 19.1667 15.2034 19.2106 15.1253 19.2887C15.0471 19.3668 15.0033 19.4728 15.0033 19.5833V27.4983C15.0033 28.8249 15.5302 30.0971 16.4682 31.035C17.4062 31.973 18.6784 32.5 20.0049 32.5C21.3314 32.5 22.6036 31.973 23.5416 31.035C24.4796 30.0971 25.0066 28.8249 25.0066 27.4983V19.5833C25.0066 19.4728 24.9627 19.3668 24.8845 19.2887C24.8064 19.2106 24.7004 19.1667 24.5899 19.1667ZM6.24992 16.6667H11.8849C11.2969 17.3768 10.9378 18.2484 10.8549 19.1667H6.24992C6.13941 19.1667 6.03343 19.2106 5.95529 19.2887C5.87715 19.3668 5.83325 19.4728 5.83325 19.5833V24.9983C5.83315 25.6281 5.97576 26.2498 6.25037 26.8166C6.52499 27.3833 6.92447 27.8805 7.4188 28.2708C7.91314 28.661 8.48948 28.9342 9.10453 29.0697C9.71958 29.2052 10.3573 29.1996 10.9699 29.0533C11.1116 29.8933 11.3699 30.695 11.7249 31.44C10.7371 31.7043 9.70164 31.7378 8.69874 31.538C7.69585 31.3382 6.75233 30.9105 5.94116 30.2878C5.12999 29.6651 4.4729 28.8642 4.02069 27.947C3.56848 27.0298 3.33327 26.0209 3.33325 24.9983V19.5833C3.33325 17.9733 4.63992 16.6667 6.24992 16.6667ZM28.1249 16.6667H33.7499C35.3599 16.6667 36.6666 17.9733 36.6666 19.5833V25C36.6668 26.0219 36.4321 27.0303 35.9806 27.947C35.529 28.8638 34.8728 29.6645 34.0625 30.2873C33.2523 30.91 32.3097 31.3382 31.3076 31.5386C30.3055 31.7391 29.2707 31.7065 28.2833 31.4433C28.6399 30.6967 28.8983 29.895 29.0416 29.055C29.6534 29.1996 30.29 29.2039 30.9037 29.0675C31.5174 28.9311 32.0923 28.6577 32.5853 28.2676C33.0783 27.8775 33.4766 27.3809 33.7505 26.8151C34.0243 26.2492 34.1666 25.6287 34.1666 25V19.5833C34.1666 19.4728 34.1227 19.3668 34.0445 19.2887C33.9664 19.2106 33.8604 19.1667 33.7499 19.1667H29.1549C29.072 18.2484 28.7129 17.3768 28.1249 16.6667ZM19.9999 5C21.326 5 22.5978 5.52678 23.5355 6.46447C24.4731 7.40215 24.9999 8.67392 24.9999 10C24.9999 11.3261 24.4731 12.5979 23.5355 13.5355C22.5978 14.4732 21.326 15 19.9999 15C18.6738 15 17.4021 14.4732 16.4644 13.5355C15.5267 12.5979 14.9999 11.3261 14.9999 10C14.9999 8.67392 15.5267 7.40215 16.4644 6.46447C17.4021 5.52678 18.6738 5 19.9999 5ZM30.8333 6.66667C31.9383 6.66667 32.9981 7.10565 33.7795 7.88706C34.5609 8.66846 34.9999 9.72826 34.9999 10.8333C34.9999 11.9384 34.5609 12.9982 33.7795 13.7796C32.9981 14.561 31.9383 15 30.8333 15C29.7282 15 28.6684 14.561 27.887 13.7796C27.1056 12.9982 26.6666 11.9384 26.6666 10.8333C26.6666 9.72826 27.1056 8.66846 27.887 7.88706C28.6684 7.10565 29.7282 6.66667 30.8333 6.66667ZM9.16658 6.66667C10.2717 6.66667 11.3315 7.10565 12.1129 7.88706C12.8943 8.66846 13.3333 9.72826 13.3333 10.8333C13.3333 11.9384 12.8943 12.9982 12.1129 13.7796C11.3315 14.561 10.2717 15 9.16658 15C8.06152 15 7.00171 14.561 6.22031 13.7796C5.43891 12.9982 4.99992 11.9384 4.99992 10.8333C4.99992 9.72826 5.43891 8.66846 6.22031 7.88706C7.00171 7.10565 8.06152 6.66667 9.16658 6.66667ZM19.9999 7.5C19.3369 7.5 18.701 7.76339 18.2322 8.23223C17.7633 8.70107 17.4999 9.33696 17.4999 10C17.4999 10.663 17.7633 11.2989 18.2322 11.7678C18.701 12.2366 19.3369 12.5 19.9999 12.5C20.663 12.5 21.2988 12.2366 21.7677 11.7678C22.2365 11.2989 22.4999 10.663 22.4999 10C22.4999 9.33696 22.2365 8.70107 21.7677 8.23223C21.2988 7.76339 20.663 7.5 19.9999 7.5ZM30.8333 9.16667C30.3912 9.16667 29.9673 9.34226 29.6547 9.65482C29.3422 9.96738 29.1666 10.3913 29.1666 10.8333C29.1666 11.2754 29.3422 11.6993 29.6547 12.0118C29.9673 12.3244 30.3912 12.5 30.8333 12.5C31.2753 12.5 31.6992 12.3244 32.0118 12.0118C32.3243 11.6993 32.4999 11.2754 32.4999 10.8333C32.4999 10.3913 32.3243 9.96738 32.0118 9.65482C31.6992 9.34226 31.2753 9.16667 30.8333 9.16667ZM9.16658 9.16667C8.72456 9.16667 8.30063 9.34226 7.98807 9.65482C7.67551 9.96738 7.49992 10.3913 7.49992 10.8333C7.49992 11.2754 7.67551 11.6993 7.98807 12.0118C8.30063 12.3244 8.72456 12.5 9.16658 12.5C9.60861 12.5 10.0325 12.3244 10.3451 12.0118C10.6577 11.6993 10.8333 11.2754 10.8333 10.8333C10.8333 10.3913 10.6577 9.96738 10.3451 9.65482C10.0325 9.34226 9.60861 9.16667 9.16658 9.16667Z" fill="white"/>
</g>
</svg>
