<svg width="30" height="30" viewBox="0 0 30 30" fill="none" xmlns="http://www.w3.org/2000/svg">
<g id="fluent:inprivate-account-20-regular">
<path id="Vector" d="M9 9.00002C8.99981 7.75675 9.38583 6.54411 10.1047 5.52975C10.8236 4.51539 11.8399 3.7494 13.013 3.33766C14.1861 2.92592 15.4581 2.88878 16.6533 3.23136C17.8484 3.57395 18.9076 4.27934 19.6845 5.25002H15V4.50002C13.8065 4.50002 12.6619 4.97413 11.818 5.81804C10.9741 6.66196 10.5 7.80655 10.5 9.00002C10.5 10.1935 10.9741 11.3381 11.818 12.182C12.6619 13.0259 13.8065 13.5 15 13.5V12.75H19.6845C18.9076 13.7207 17.8484 14.4261 16.6533 14.7687C15.4581 15.1113 14.1861 15.0741 13.013 14.6624C11.8399 14.2507 10.8236 13.4847 10.1047 12.4703C9.38583 11.4559 8.99981 10.2433 9 9.00002ZM20.565 11.25H15V9.75002H20.955C20.8875 10.275 20.7555 10.7775 20.565 11.25ZM20.955 8.25002C20.8908 7.73518 20.7597 7.23092 20.565 6.75002H15V8.25002H20.955ZM4.5 19.5C4.5 17.8305 5.8545 16.5 7.5135 16.5H22.5C23.0254 16.4998 23.5416 16.6375 23.997 16.8995C24.4524 17.1614 24.831 17.5383 25.095 17.9925H15V18H7.5135C6.672 18 6 18.6705 6 19.5C6 21.4635 6.933 22.926 8.5095 23.9295C10.1145 24.954 12.3975 25.5 15 25.5H21.78C19.923 26.517 17.541 27 15 27C12.2175 27 9.6255 26.421 7.7025 25.1955C5.7495 23.9505 4.5 22.035 4.5 19.5ZM15 20.9925V19.4925H25.5V19.5C25.5 20.025 25.446 20.5215 25.344 20.9925H15ZM24.816 22.4925C24.5365 23.0436 24.1788 23.5514 23.754 24H21.3795L21.39 23.9925H15V22.4925H24.816Z" fill="white"/>
</g>
</svg>
