<svg width="30" height="30" viewBox="0 0 30 30" fill="none" xmlns="http://www.w3.org/2000/svg">
<g id="material-symbols:public">
<path id="Vector" d="M15 27.5C13.2708 27.5 11.6458 27.1717 10.125 26.515C8.60417 25.8583 7.28125 24.9679 6.15625 23.8438C5.03125 22.7188 4.14083 21.3958 3.485 19.875C2.82917 18.3542 2.50083 16.7292 2.5 15C2.5 13.2708 2.82833 11.6458 3.485 10.125C4.14167 8.60417 5.03208 7.28125 6.15625 6.15625C7.28125 5.03125 8.60417 4.14083 10.125 3.485C11.6458 2.82917 13.2708 2.50083 15 2.5C16.7292 2.5 18.3542 2.82833 19.875 3.485C21.3958 4.14167 22.7188 5.03208 23.8438 6.15625C24.9688 7.28125 25.8596 8.60417 26.5162 10.125C27.1729 11.6458 27.5008 13.2708 27.5 15C27.5 16.7292 27.1717 18.3542 26.515 19.875C25.8583 21.3958 24.9679 22.7188 23.8438 23.8438C22.7188 24.9688 21.3958 25.8596 19.875 26.5162C18.3542 27.1729 16.7292 27.5008 15 27.5ZM13.75 24.9375V22.5C13.0625 22.5 12.4742 22.2554 11.985 21.7663C11.4958 21.2771 11.2508 20.6883 11.25 20V18.75L5.25 12.75C5.1875 13.125 5.13042 13.5 5.07875 13.875C5.02708 14.25 5.00083 14.625 5 15C5 17.5208 5.82833 19.7292 7.485 21.625C9.14167 23.5208 11.23 24.625 13.75 24.9375ZM22.375 21.75C22.7917 21.2917 23.1667 20.7971 23.5 20.2662C23.8333 19.7354 24.1092 19.1833 24.3275 18.61C24.5467 18.0367 24.7133 17.4479 24.8275 16.8438C24.9417 16.2396 24.9992 15.625 25 15C25 12.9583 24.4321 11.0938 23.2962 9.40625C22.1604 7.71875 20.645 6.5 18.75 5.75V6.25C18.75 6.9375 18.5054 7.52625 18.0163 8.01625C17.5271 8.50625 16.9383 8.75083 16.25 8.75H13.75V11.25C13.75 11.6042 13.63 11.9013 13.39 12.1413C13.15 12.3813 12.8533 12.5008 12.5 12.5H10V15H17.5C17.8542 15 18.1513 15.12 18.3913 15.36C18.6313 15.6 18.7508 15.8967 18.75 16.25V20H20C20.5417 20 21.0312 20.1617 21.4688 20.485C21.9062 20.8083 22.2083 21.23 22.375 21.75Z" fill="white"/>
</g>
</svg>
