<svg width="212" height="212" viewBox="0 0 212 212" fill="none" xmlns="http://www.w3.org/2000/svg">
<path fill-rule="evenodd" clip-rule="evenodd" d="M106 119.25C115.371 119.25 124.358 115.527 130.984 108.901C137.611 102.275 141.333 93.2877 141.333 83.9167C141.333 74.5457 137.611 65.5585 130.984 58.9322C124.358 52.3059 115.371 48.5833 106 48.5833C96.6289 48.5833 87.6417 52.3059 81.0154 58.9322C74.3891 65.5585 70.6665 74.5457 70.6665 83.9167C70.6665 93.2877 74.3891 102.275 81.0154 108.901C87.6417 115.527 96.6289 119.25 106 119.25ZM106 110.417C109.48 110.417 112.926 109.731 116.141 108.399C119.356 107.068 122.277 105.116 124.738 102.655C127.199 100.194 129.151 97.2729 130.483 94.0578C131.814 90.8427 132.5 87.3967 132.5 83.9167C132.5 80.4366 131.814 76.9907 130.483 73.7756C129.151 70.5604 127.199 67.6391 124.738 65.1783C122.277 62.7176 119.356 60.7656 116.141 59.4339C112.926 58.1021 109.48 57.4167 106 57.4167C98.9716 57.4167 92.2312 60.2086 87.2615 65.1783C82.2918 70.1481 79.4998 76.8884 79.4998 83.9167C79.4998 90.9449 82.2918 97.6853 87.2615 102.655C92.2312 107.625 98.9716 110.417 106 110.417Z" fill="white"/>
<path fill-rule="evenodd" clip-rule="evenodd" d="M194.333 106C194.333 154.787 154.786 194.333 106 194.333C57.2133 194.333 17.6665 154.787 17.6665 106C17.6665 57.2135 57.2133 17.6667 106 17.6667C154.786 17.6667 194.333 57.2135 194.333 106ZM148.532 173.178C135.817 181.249 121.061 185.524 106 185.5C90.579 185.524 75.4871 181.041 62.5796 172.603C61.5196 171.278 60.4419 169.909 59.3554 168.496C58.093 166.84 57.4116 164.814 57.4165 162.732C57.4165 157.975 60.835 153.987 65.4063 153.32C95.6383 148.904 116.454 149.283 146.726 153.475C148.918 153.793 150.921 154.893 152.366 156.573C153.81 158.252 154.598 160.398 154.583 162.613C154.583 164.733 153.854 166.791 152.538 168.399C151.182 170.051 149.844 171.645 148.532 173.178ZM163.35 161.058C162.644 152.79 156.368 145.891 147.936 144.725C116.949 140.437 95.2894 140.026 64.1298 144.58C55.6498 145.816 49.4003 152.777 48.6583 161.067C34.4159 146.276 26.4718 126.533 26.4998 106C26.4998 62.0939 62.0938 26.5 106 26.5C149.906 26.5 185.5 62.0939 185.5 106C185.528 126.529 177.587 146.268 163.35 161.058Z" fill="white"/>
</svg>
