<svg width="35" height="36" viewBox="0 0 35 36" fill="none" xmlns="http://www.w3.org/2000/svg">
<g id="mingcute:settings-6-line" clip-path="url(#clip0_184_28)">
<g id="Group">
<path id="Vector" fill-rule="evenodd" clip-rule="evenodd" d="M23.3333 22.375C25.2379 22.375 26.8596 23.5927 27.4604 25.2917H29.1667C29.5534 25.2917 29.9244 25.4453 30.1979 25.7188C30.4714 25.9923 30.625 26.3632 30.625 26.75C30.625 27.1368 30.4714 27.5077 30.1979 27.7812C29.9244 28.0547 29.5534 28.2083 29.1667 28.2083H27.4604C27.1591 29.0622 26.6004 29.8017 25.8612 30.3247C25.122 30.8477 24.2388 31.1286 23.3333 31.1286C22.4278 31.1286 21.5446 30.8477 20.8055 30.3247C20.0663 29.8017 19.5075 29.0622 19.2063 28.2083H5.83333C5.44656 28.2083 5.07563 28.0547 4.80214 27.7812C4.52865 27.5077 4.375 27.1368 4.375 26.75C4.375 26.3632 4.52865 25.9923 4.80214 25.7188C5.07563 25.4453 5.44656 25.2917 5.83333 25.2917H19.2063C19.5081 24.4384 20.0671 23.6998 20.8063 23.1774C21.5454 22.6551 22.4283 22.3747 23.3333 22.375ZM23.3333 25.2917C22.9466 25.2917 22.5756 25.4453 22.3021 25.7188C22.0286 25.9923 21.875 26.3632 21.875 26.75C21.875 27.1368 22.0286 27.5077 22.3021 27.7812C22.5756 28.0547 22.9466 28.2083 23.3333 28.2083C23.7201 28.2083 24.091 28.0547 24.3645 27.7812C24.638 27.5077 24.7917 27.1368 24.7917 26.75C24.7917 26.3632 24.638 25.9923 24.3645 25.7188C24.091 25.4453 23.7201 25.2917 23.3333 25.2917ZM11.6667 13.625C12.5256 13.6249 13.3656 13.8776 14.0819 14.3517C14.7981 14.8257 15.359 15.5001 15.6946 16.2908L15.7923 16.5417H29.1667C29.5384 16.5421 29.8959 16.6844 30.1662 16.9396C30.4364 17.1947 30.5991 17.5435 30.6209 17.9145C30.6427 18.2856 30.5219 18.651 30.2834 18.936C30.0448 19.221 29.7064 19.4042 29.3373 19.4481L29.1667 19.4583H15.7938C15.4997 20.29 14.9613 21.0134 14.249 21.5337C13.5367 22.054 12.6838 22.347 11.8021 22.3741C10.9204 22.4012 10.0511 22.1612 9.30815 21.6857C8.56521 21.2101 7.98331 20.5212 7.63875 19.7092L7.53958 19.4583H5.83333C5.46163 19.4579 5.10412 19.3156 4.83384 19.0604C4.56356 18.8053 4.40091 18.4565 4.37912 18.0855C4.35734 17.7144 4.47807 17.349 4.71664 17.064C4.95521 16.779 5.29361 16.5958 5.66271 16.5519L5.83333 16.5417H7.53958C7.84147 15.6884 8.40047 14.9498 9.13959 14.4274C9.87871 13.9051 10.7616 13.6247 11.6667 13.625ZM11.6667 16.5417C11.2799 16.5417 10.909 16.6953 10.6355 16.9688C10.362 17.2423 10.2083 17.6132 10.2083 18C10.2083 18.3868 10.362 18.7577 10.6355 19.0312C10.909 19.3047 11.2799 19.4583 11.6667 19.4583C12.0534 19.4583 12.4244 19.3047 12.6979 19.0312C12.9714 18.7577 13.125 18.3868 13.125 18C13.125 17.6132 12.9714 17.2423 12.6979 16.9688C12.4244 16.6953 12.0534 16.5417 11.6667 16.5417ZM23.3333 4.875C25.2379 4.875 26.8596 6.09271 27.4604 7.79167H29.1667C29.5534 7.79167 29.9244 7.94531 30.1979 8.2188C30.4714 8.49229 30.625 8.86323 30.625 9.25C30.625 9.63677 30.4714 10.0077 30.1979 10.2812C29.9244 10.5547 29.5534 10.7083 29.1667 10.7083H27.4604C27.1591 11.5622 26.6004 12.3017 25.8612 12.8247C25.122 13.3477 24.2388 13.6286 23.3333 13.6286C22.4278 13.6286 21.5446 13.3477 20.8055 12.8247C20.0663 12.3017 19.5075 11.5622 19.2063 10.7083H5.83333C5.44656 10.7083 5.07563 10.5547 4.80214 10.2812C4.52865 10.0077 4.375 9.63677 4.375 9.25C4.375 8.86323 4.52865 8.49229 4.80214 8.2188C5.07563 7.94531 5.44656 7.79167 5.83333 7.79167H19.2063C19.5081 6.93843 20.0671 6.19978 20.8063 5.67743C21.5454 5.15509 22.4283 4.87474 23.3333 4.875ZM23.3333 7.79167C22.9466 7.79167 22.5756 7.94531 22.3021 8.2188C22.0286 8.49229 21.875 8.86323 21.875 9.25C21.875 9.63677 22.0286 10.0077 22.3021 10.2812C22.5756 10.5547 22.9466 10.7083 23.3333 10.7083C23.7201 10.7083 24.091 10.5547 24.3645 10.2812C24.638 10.0077 24.7917 9.63677 24.7917 9.25C24.7917 8.86323 24.638 8.49229 24.3645 8.2188C24.091 7.94531 23.7201 7.79167 23.3333 7.79167Z" fill="white"/>
</g>
</g>
<defs>
<clipPath id="clip0_184_28">
<rect width="35" height="35" fill="white" transform="translate(0 0.5)"/>
</clipPath>
</defs>
</svg>
