<svg width="35" height="36" viewBox="0 0 35 36" fill="none" xmlns="http://www.w3.org/2000/svg">
<g id="ph:lock-bold">
<path id="Vector" d="M28.4375 10.8906H24.6094V8.15625C24.6094 6.27073 23.8604 4.46243 22.5271 3.12916C21.1938 1.7959 19.3855 1.04688 17.5 1.04688C15.6145 1.04688 13.8062 1.7959 12.4729 3.12916C11.1396 4.46243 10.3906 6.27073 10.3906 8.15625V10.8906H6.5625C5.8373 10.8906 5.1418 11.1787 4.629 11.6915C4.11621 12.2043 3.82813 12.8998 3.82812 13.625V28.9375C3.82813 29.6627 4.11621 30.3582 4.629 30.871C5.1418 31.3838 5.8373 31.6719 6.5625 31.6719H28.4375C29.1627 31.6719 29.8582 31.3838 30.371 30.871C30.8838 30.3582 31.1719 29.6627 31.1719 28.9375V13.625C31.1719 12.8998 30.8838 12.2043 30.371 11.6915C29.8582 11.1787 29.1627 10.8906 28.4375 10.8906ZM13.6719 8.15625C13.6719 7.14097 14.0752 6.16727 14.7931 5.44936C15.511 4.73144 16.4847 4.32812 17.5 4.32812C18.5153 4.32812 19.489 4.73144 20.2069 5.44936C20.9248 6.16727 21.3281 7.14097 21.3281 8.15625V10.8906H13.6719V8.15625ZM27.8906 28.3906H7.10938V14.1719H27.8906V28.3906ZM19.6875 21.2812C19.6875 21.7139 19.5592 22.1368 19.3188 22.4966C19.0785 22.8563 18.7368 23.1367 18.3371 23.3022C17.9374 23.4678 17.4976 23.5111 17.0732 23.4267C16.6489 23.3423 16.2591 23.134 15.9532 22.828C15.6473 22.5221 15.4389 22.1323 15.3545 21.708C15.2701 21.2837 15.3134 20.8438 15.479 20.4441C15.6446 20.0444 15.925 19.7028 16.2847 19.4624C16.6444 19.222 17.0674 19.0938 17.5 19.0938C18.0802 19.0938 18.6366 19.3242 19.0468 19.7345C19.457 20.1447 19.6875 20.7011 19.6875 21.2812Z" fill="white"/>
</g>
</svg>
