<svg width="35" height="36" viewBox="0 0 35 36" fill="none" xmlns="http://www.w3.org/2000/svg">
<g id="carbon:time">
<path id="Vector" d="M17.5 33.3125C14.4715 33.3125 11.511 32.4144 8.99284 30.7319C6.47471 29.0493 4.51207 26.6578 3.3531 23.8598C2.19413 21.0618 1.8909 17.983 2.48173 15.0127C3.07257 12.0423 4.53094 9.31392 6.67243 7.17243C8.81393 5.03093 11.5424 3.57256 14.5127 2.98172C17.483 2.39089 20.5619 2.69413 23.3598 3.85309C26.1578 5.01206 28.5493 6.9747 30.2319 9.49283C31.9144 12.011 32.8125 14.9715 32.8125 18C32.8125 22.0611 31.1992 25.9559 28.3276 28.8276C25.4559 31.6992 21.5611 33.3125 17.5 33.3125ZM17.5 4.875C14.9041 4.875 12.3665 5.64477 10.2081 7.08696C8.04975 8.52915 6.36749 10.579 5.37409 12.9773C4.38069 15.3756 4.12077 18.0146 4.6272 20.5606C5.13363 23.1066 6.38367 25.4452 8.21923 27.2808C10.0548 29.1163 12.3934 30.3664 14.9394 30.8728C17.4854 31.3792 20.1244 31.1193 22.5227 30.1259C24.921 29.1325 26.9709 27.4503 28.413 25.2919C29.8552 23.1335 30.625 20.5959 30.625 18C30.625 14.519 29.2422 11.1806 26.7808 8.71922C24.3194 6.25781 20.981 4.875 17.5 4.875Z" fill="white"/>
<path id="Vector_2" d="M22.5203 24.5625L16.4062 18.4484V8.15625H18.5938V17.5406L24.0625 23.0203L22.5203 24.5625Z" fill="white"/>
</g>
</svg>
